<?xml version="1.0" encoding="UTF-8" standalone="no"?>
<!-- Created with Inkscape (http://www.inkscape.org/) -->

<svg
   version="1.1"
   id="svg1"
   width="268"
   height="188"
   viewBox="0 0 268 188"
   sodipodi:docname="squid.svg"
   inkscape:export-filename="squid2.png"
   inkscape:export-xdpi="100"
   inkscape:export-ydpi="100"
   inkscape:version="1.4.3 (0d15f75, 2025-12-25)"
   xmlns:inkscape="http://www.inkscape.org/namespaces/inkscape"
   xmlns:sodipodi="http://sodipodi.sourceforge.net/DTD/sodipodi-0.dtd"
   xmlns="http://www.w3.org/2000/svg"
   xmlns:svg="http://www.w3.org/2000/svg">
  <defs
     id="defs1">
    <inkscape:path-effect
       effect="fill_between_many"
       method="originald"
       linkedpaths="#path1-2,0,1"
       id="path-effect2"
       is_visible="true"
       lpeversion="0"
       join="true"
       close="true"
       autoreverse="true" />
  </defs>
  <sodipodi:namedview
     id="namedview1"
     pagecolor="#ffffff"
     bordercolor="#000000"
     borderopacity="0.25"
     inkscape:showpageshadow="2"
     inkscape:pageopacity="0.0"
     inkscape:pagecheckerboard="0"
     inkscape:deskcolor="#d1d1d1"
     inkscape:zoom="0.7823309"
     inkscape:cx="118.87553"
     inkscape:cy="100.34117"
     inkscape:window-width="1366"
     inkscape:window-height="642"
     inkscape:window-x="1311"
     inkscape:window-y="190"
     inkscape:window-maximized="0"
     inkscape:current-layer="g1">
    <inkscape:page
       x="0"
       y="0"
       width="268"
       height="188"
       id="page2"
       margin="0"
       bleed="0" />
  </sodipodi:namedview>
  <g
     inkscape:groupmode="layer"
     inkscape:label="Image"
     id="g1">
    <path
       inkscape:original-d="M 0,0"
       inkscape:path-effect="#path-effect2"
       d="m 75.45809,-12.47021 c -7.056,-8.97024 -1.44004,-26.93406 11.25016,-35.98603 l 2.84902,-2.03221 -10.85466,-3.19016 c -5.97006,-1.75458 -12.10407,-3.19015 -13.63114,-3.19015 -6.57864,0 -14.241498,5.28392 -17.856133,12.3127 -1.501041,2.91882 -2.475967,3.73938 -4.158417,3.5 -1.934254,-0.27522 -2.233902,-1.01073 -2.499781,-6.13596 -0.367094,-7.07633 2.533242,-12.83243 8.575904,-17.01999 8.048867,-5.577883 13.822557,-5.894713 28.346137,-1.555523 5.70903,1.705683 12.87912,3.335163 15.93353,3.621073 4.88876,0.45762 5.89992,0.22186 8.44771,-1.96967 2.80573,-2.413383 2.85589,-2.617453 1.64053,-6.673933 -0.68952,-2.30144 -1.79099,-4.351358 -2.4477,-4.555377 -0.65671,-0.204018 -4.65017,-1.103949 -8.87436,-1.999845 -9.56811,-2.029275 -14.0118,-4.856551 -15.21511,-9.68053 -0.83806,-3.359743 -1.25459,-3.669324 -6.5,-4.830974 -7.23012,-1.601188 -8.98931,-2.578654 -10.15395,-5.6419 -2.44057,-6.419181 14.78479,-42.297181 23.65844,-49.277181 3.44527,-2.71005 9.05318,-2.71743 22.97798,-0.0302 20.3552,3.92814 39.61494,10.27094 44.66298,14.70882 2.31651,2.03651 2.22146,7.5931 -0.22197,12.97603 -1.78356,3.92925 -1.81331,4.52211 -0.39707,7.91166 1.06716,2.55407 1.29248,4.75122 0.74377,7.25247 -0.89765,4.091808 -0.94768,3.35972 0.86021,12.58834 1.30529,6.663011 1.51317,7.013096 4.31818,7.272035 4.6863,0.432605 8.88743,-2.967213 13.53889,-10.956503 2.34255,-4.023542 5.41767,-8.609772 6.83359,-10.191632 5.67317,-6.33802 16.54174,-8.41127 24.6919,-4.71015 4.99658,2.26903 7.3825,5.43908 7.3825,9.80876 0,4.059707 -1.985,4.309341 -6.18237,0.77749 -3.70036,-3.11365 -10.89003,-3.42817 -15.08803,-0.66004 -2.7265,1.797837 -7.7296,7.822779 -7.7296,9.308315 0,0.417843 2.3625,-0.340186 5.25,-1.684511 9.89421,-4.606415 21.2501,-2.245845 26.5,5.508602 4.56976,6.749846 1.60577,10.303216 -4.2821,5.13359 -6.33181,-5.559395 -13.5802,-4.356356 -23.52721,3.904888 -2.50762,2.082641 -5.96063,4.638816 -7.67336,5.680386 l -3.11405,1.89377 4.98713,1.77127 c 9.05452,3.21588 14.85959,11.39816 14.85959,20.94465 0,4.58296 -1.53021,8.58157 -3.58592,9.37042 -2.12507,0.81547 -3.37982,-1.31595 -3.39877,-5.77346 -0.0194,-4.56111 -3.43543,-9.66686 -8.06575,-12.05537 -1.95274,-1.0073 -6.45274,-2.09027 -10,-2.40661 -6.00149,-0.53519 -6.31061,-0.46556 -4.44956,1.00221 8.73604,6.88993 12.07054,13.27237 11.27262,21.57647 -0.50228,5.22736 -3.63902,9.98542 -6.58286,9.98542 -1.16361,0 -1.33189,-0.94642 -0.82536,-4.64194 1.40699,-10.26512 -2.88386,-16.44904 -15.69092,-22.61354 -4.62423,-2.22581 -9.46574,-5.51186 -12.07213,-8.19363 l -4.35158,-4.477453 -0.61388,3.713283 c -1.05378,6.37422 -0.69687,13.19468 0.84668,16.17958 0.81542,1.57684 3.8629,4.22886 6.77218,5.89338 6.37964,3.65006 9.14427,6.45774 11.19752,11.37185 1.57377,3.76655 2.04121,10.3189 0.94074,13.18668 -1.17073,3.05089 -4.02153,1.76503 -5.26136,-2.37314 -1.68018,-5.60794 -5.49671,-9.69577 -12.22184,-13.0906 -7.71212,-3.89306 -12.35069,-8.09983 -14.29823,-12.9672 -0.87746,-2.193 -1.80506,-3.98727 -2.06133,-3.98727 -0.25627,0 -1.60991,1.95204 -3.0081,4.33786 -5.41943,9.24757 -2.42111,19.09067 8.36696,27.46757 5.1759,4.01907 -2.70132,5.88048 -9.69895,2.29189 -7.6184,-3.90695 -12.53205,-12.61669 -12.53926,-22.22666 l -0.004,-5.62933 -3.58334,1.49207 c -7.49013,3.11883 -10.83439,5.24866 -14.34774,9.13751 -3.9565,4.37937 -6.23331,10.89051 -5.35093,15.30239 1.17765,5.88828 -1.77426,7.68946 -5.2858,3.22525 z"
       id="path2"
       style="fill:#800000"
       transform="translate(8.3617192,183.14401)" />
    <path
       style="fill:#000000;fill-opacity:1;stroke:#e6e6e6"
       d="m 122.75266,22.68115 c -7.056,-8.97024 -1.44004,-26.9340603 11.25016,-35.98603 l 2.84902,-2.03221 -10.85466,-3.19016 c -5.97006,-1.75458 -12.10407,-3.19015 -13.63114,-3.19015 -6.57864,0 -14.241498,5.28392 -17.856133,12.3126997 -1.501041,2.91882 -2.475967,3.73938 -4.158417,3.5 -1.934254,-0.27522 -2.233902,-1.01073 -2.499781,-6.1359597 -0.367094,-7.07633 2.533242,-12.83243 8.575904,-17.01999 8.048867,-5.577883 13.822557,-5.894713 28.346137,-1.555523 5.70903,1.705683 12.87912,3.335163 15.93353,3.621073 4.88876,0.45762 5.89992,0.22186 8.44771,-1.96967 2.80573,-2.413383 2.85589,-2.617453 1.64053,-6.673933 -0.68952,-2.30144 -1.79099,-4.351358 -2.4477,-4.555377 -0.65671,-0.204018 -4.65017,-1.103949 -8.87436,-1.999845 -9.56811,-2.029275 -14.0118,-4.856551 -15.21511,-9.68053 -0.83806,-3.359743 -1.25459,-3.669324 -6.5,-4.830974 -7.23012,-1.601188 -8.98931,-2.578654 -10.15395,-5.6419 -2.44057,-6.41918 14.78479,-42.297181 23.65844,-49.277181 3.44527,-2.71005 9.05318,-2.71743 22.97798,-0.0302 20.3552,3.92814 39.61494,10.27094 44.66298,14.708819 2.31651,2.036508 2.22146,7.593104 -0.22197,12.976035 -1.78356,3.929243 -1.81331,4.522106 -0.39707,7.911655 1.06716,2.554071 1.29248,4.751217 0.74377,7.252467 -0.89765,4.091812 -0.94768,3.359722 0.86021,12.588344 1.30529,6.663011 1.51317,7.013096 4.31818,7.272035 4.6863,0.432605 8.88743,-2.967213 13.53889,-10.956503 2.34255,-4.023542 5.41767,-8.609776 6.83359,-10.191631 5.67317,-6.33802 16.54174,-8.411275 24.6919,-4.710153 4.99658,2.269028 7.3825,5.439082 7.3825,9.808758 0,4.059711 -1.985,4.309345 -6.18237,0.777494 -3.70036,-3.113648 -10.89003,-3.428168 -15.08803,-0.660041 -2.7265,1.797838 -7.7296,7.82278 -7.7296,9.308316 0,0.417843 2.3625,-0.340186 5.25,-1.684511 9.89421,-4.606415 21.2501,-2.245845 26.5,5.508602 4.56976,6.749846 1.60577,10.303216 -4.2821,5.13359 -6.33181,-5.559395 -13.5802,-4.356356 -23.52721,3.904888 -2.50762,2.082641 -5.96063,4.638816 -7.67336,5.680386 l -3.11405,1.89377 4.98713,1.77127 c 9.05452,3.21588 14.85959,11.39816 14.85959,20.94465 0,4.5829597 -1.53021,8.5815697 -3.58592,9.3704197 -2.12507,0.81547 -3.37982,-1.31595 -3.39877,-5.77346 -0.0194,-4.5611097 -3.43543,-9.6668597 -8.06575,-12.0553697 -1.95274,-1.0073 -6.45274,-2.09027 -10,-2.40661 -6.00149,-0.53519 -6.31061,-0.46556 -4.44956,1.00221 8.73604,6.88993 12.07054,13.2723697 11.27262,21.57646972 -0.50228,5.22735998 -3.63902,9.98541998 -6.58286,9.98541998 -1.16361,0 -1.33189,-0.94642 -0.82536,-4.64194 1.40699,-10.26512 -2.88386,-16.4490397 -15.69092,-22.6135397 -4.62423,-2.22581 -9.46574,-5.51186 -12.07213,-8.19363 l -4.35158,-4.477453 -0.61388,3.713283 c -1.05378,6.37422 -0.69687,13.19468 0.84668,16.17958 0.81542,1.5768397 3.8629,4.2288597 6.77218,5.8933797 6.37964,3.65006 9.14427,6.45774 11.19752,11.37185 1.57377,3.7665503 2.04121,10.3189003 0.94074,13.1866803 -1.17073,3.05089 -4.02153,1.76503 -5.26136,-2.37314 -1.68018,-5.60794 -5.49671,-9.6957703 -12.22184,-13.0906003 -7.71212,-3.89305998 -12.35069,-8.09983 -14.29823,-12.9672 -0.87746,-2.1929997 -1.80506,-3.9872697 -2.06133,-3.9872697 -0.25627,0 -1.60991,1.95204 -3.0081,4.3378597 -5.41943,9.24757002 -2.42111,19.0906703 8.36696,27.4675703 5.1759,4.01907 -2.70132,5.88048 -9.69895,2.29189 -7.6184,-3.90695 -12.53205,-12.6166903 -12.53926,-22.22666028 l -0.004,-5.62933002 -3.58334,1.49207 c -7.49013,3.11883 -10.83439,5.24866002 -14.34774,9.13751 -3.9565,4.37937 -6.23331,10.8905103 -5.35093,15.3023903 1.17765,5.88828 -1.77426,7.68946 -5.2858,3.22525 z m 1.80305,-3.14855 c -1.19322,-3.12931 -0.36034,-10.4830303 1.61245,-14.2368303 2.90505,-5.52765998 9.05743,-10.09799 18.10159,-13.44687 4.88623,-1.80928 9.66816,-3.6236997 10.62652,-4.0320497 1.62405,-0.69199 1.64104,-0.49969 0.25,2.8295297 -3.96497,9.48950002 -0.17041,22.3477903 8.15261,27.6260903 2.61057,1.65557 5.89588,3.00845 7.3007,3.00639 2.51749,-0.004 2.50812,-0.0318 -0.65193,-1.95863 -3.754,-2.28894 -8.90775,-10.7928203 -9.82257,-16.2076403 -0.80248,-4.74984 0.89212,-10.23842 4.63785,-15.0213497 2.55887,-3.26743 2.89087,-4.49262 2.89087,-10.66821 0,-3.83727 0.27314,-7.688663 0.60699,-8.558643 1.25572,-3.27237 1.8813,-1.37768 1.54073,4.666393 -0.76151,13.51423 3.60836,22.5082797 13.12523,27.01430972 7.33936,3.47501998 12.60609,8.25383998 15.14008,13.73751028 l 2.07944,4.5 0.32897,-3.40882 c 0.40904,-4.23851 -2.14522,-11.1417603 -5.09661,-13.7743403 -1.22365,-1.09147998 -4.39053,-3.21978 -7.0375,-4.72956 -5.20208,-2.96715 -8.14573,-6.8867697 -9.13592,-12.1649397 -0.53341,-2.84333 1.89822,-21.205303 2.94706,-22.254153 0.19473,-0.19473 1.11182,1.15027 2.03798,2.98888 2.70589,5.371763 8.50346,10.715493 14.95915,13.788133 13.53425,6.44176 19.08408,13.2983897 18.33967,22.6580797 -0.19232,2.4182 -0.2455,4.39672 -0.11816,4.39672 0.96047,0 3.27863,-6.54043998 3.26093,-9.20034 -0.0508,-7.6368597 -3.58915,-12.0886797 -17.6938,-22.2618997 -3.94362,-2.8444 -6.98073,-5.982673 -8.30844,-8.585193 -3.00604,-5.89233 -1.84455,-7.291119 1.4236,-1.71444 4.10106,6.997933 7.55065,8.686093 19.25144,9.421263 5.41704,0.34035 11.0634,1.23075 12.54747,1.97867 4.39203,2.21341 7.93884,7.74697 8.71531,13.59718 0.68567,5.1661497 0.71356,5.2024197 1.48919,1.9365897 0.43474,-1.8304997 0.48439,-4.9595697 0.11033,-6.9534897 -1.98447,-10.57812 -9.31844,-16.515753 -21.89724,-17.728153 -7.89469,-0.76093 -14.12617,-3.08537 -17.02644,-6.35114 -2.1434,-2.413529 -1.61928,-4.026012 0.59039,-1.816344 2.14392,2.143924 7.45751,4.677294 9.81033,4.677294 3.22883,0 9.03742,-3.338448 16.60633,-9.544366 3.79692,-3.11318 8.09375,-6.2764 9.54852,-7.029378 4.04346,-2.092869 10.37008,-2.790941 13.95816,-1.540127 4.50926,1.571936 4.97924,0.464086 0.58247,-1.373002 -7.63749,-3.191148 -15.01947,-1.521419 -24.32074,5.501106 -11.41204,8.616179 -19.62594,10.928087 -24.68567,6.948102 -3.40559,-2.678838 -2.8451,-3.772334 0.73217,-1.428421 3.47938,2.279783 9.6604,1.292934 15.75229,-2.514982 3.47963,-2.175042 5.51078,-4.506704 8,-9.183613 7.05699,-13.259097 14.73998,-17.47591 23.60283,-12.954422 2.22693,1.136097 4.27995,2.640162 4.56227,3.342367 0.41137,1.023207 0.52897,1.01949 0.59224,-0.01872 0.1322,-2.169296 -4.43886,-5.977046 -8.54332,-7.116698 -11.46866,-3.184398 -19.28319,1.006747 -25.93967,13.912154 -3.38314,6.559127 -5.99229,9.697944 -9.6384,11.595014 -5.21783,2.714834 -11.79966,1.161262 -11.79966,-2.785185 0,-1.99029 -0.11173,-2.018689 -1.82874,-0.464817 -2.57644,2.331649 -6.23827,2.056659 -10.04875,-0.754624 -2.66988,-1.969782 -3.81823,-2.251247 -6.29119,-1.54201 -4.20577,1.206199 -5.82323,2.766942 -7.90815,7.630854 -4.25802,9.933558 -18.62912,9.735578 -20.50853,-0.282529 -0.454,-2.420046 -1.08925,-3.351808 -2.03718,-2.988053 -1.80174,0.69139 -1.73749,0.0094 0.3286,-3.4882 3.23125,-5.470065 11.38411,-7.476541 17.5092,-4.309133 2.14912,1.11135 4.67513,1.461499 8.14095,1.128477 5.16847,-0.496624 6.80888,-1.758844 12.01254,-9.24311 1.52547,-2.194034 2.47953,-2.616465 5.19364,-2.299607 2.79023,0.325743 3.41708,0.02085 3.89819,-1.896036 1.45763,-5.807659 -7.03964,-16.835086 -19.23374,-24.960799 -4.79976,-3.198388 -8.91434,-5.933379 -9.14351,-6.077749 -0.22916,-0.14437 -0.13993,-0.53923 0.19831,-0.87747 1.17975,-1.17974 13.84477,6.801674 20.14509,12.695315 l 6.34849,5.938704 1.61239,-4.029757 c 2.35546,-5.886862 2.05007,-7.751795 -1.63761,-10.000471 -9.68547,-5.906021 -52.98699,-16.401071 -60.19991,-14.590741 -4.92943,1.23721 -15.29162,17.829782 -22.55735,36.12019 -3.899,9.815167 -3.91534,12.856945 -0.0776,14.446591 1.60333,0.664121 4.49064,1.562824 6.41623,1.997115 l 3.50108,0.789622 0.66944,-6.125795 c 0.95262,-8.717099 3.48968,-20.957108 4.57578,-22.075796 1.19213,-1.2279 1.18448,0.794695 -0.0272,7.183761 -1.80045,9.493756 -2.31035,21.599347 -1.09901,26.091881 0.94547,3.506471 1.81978,4.598665 4.61683,5.767348 4.84627,2.024901 16.43169,4.340972 16.43169,3.284902 0,-2.466921 1.97736,-0.290745 3.86667,4.255458 2.65201,6.38144 2.69126,9.30872 0.15877,11.841213 -4.13654,4.13654 -13.19063,3.94765 -27.02544,-0.56383 -15.51223,-5.058473 -25.750853,-3.031513 -31.948263,6.32487 -2.452099,3.702 -3.034017,5.60518 -2.96155,9.68584 l 0.09019,5.0785597 0.994572,-3.4999997 c 2.242435,-7.89135 10.305431,-14 18.479041,-14 2.2124,0 9.37503,1.575 15.91695,3.5 6.54192,1.925 13.2522,3.49463 14.91173,3.48808 4.55914,-0.018 14.6018,-6.0073 17.51733,-10.44705 1.88103,-2.864433 2.58488,-3.377603 2.84284,-2.072663 0.72711,3.678213 -5.15549,8.879743 -16.17282,14.300373 -13.38174,6.5839397 -17.87708,10.9241897 -20.66571,19.9527397 -2.38602,7.7250203 -2.47907,10.2065103 -0.55534,14.8106403 1.71012,4.09288 2.97887,4.71976 1.45294,0.71788 z m 49.17704,-60.833336 c 0.048,-1.164943 0.28494,-1.4019 0.60416,-0.604167 0.28887,0.721875 0.25335,1.584375 -0.0789,1.916667 -0.3323,0.332293 -0.56864,-0.258334 -0.52522,-1.3125 z m -69.55249,18.776466 c -0.30789,-0.30789 -1.1148,-6.4e-4 -1.79313,0.68278 -0.98027,0.98762 -0.8654,1.10248 0.5598,0.5598 0.98622,-0.37553 1.54122,-0.93469 1.23333,-1.24258 z M 223.6538,-39.158383 c 0,-1.055478 -1.91911,-1.498914 -2.48992,-0.575332 -0.34546,0.558972 0.0734,1.016312 0.9309,1.016312 0.85746,0 1.55902,-0.19844 1.55902,-0.44098 z m -55.45455,-4.013565 c 2.67937,-2.679366 3.35437,-8.245639 1.25455,-10.345455 -1.84832,-1.848319 -2.56754,-1.434804 -2.06617,1.187941 0.70454,3.685587 -1.35201,6.612059 -4.64657,6.612059 -3.59121,0 -5.48726,-2.253448 -5.48726,-6.521595 0,-2.901314 -0.23393,-3.209502 -1.8,-2.371368 -1.27396,0.681801 -1.8,2.135315 -1.8,4.973601 0,5.315952 3.43399,8.919362 8.5,8.919362 2.47924,0 4.35079,-0.759877 6.04545,-2.454545 z m 61.91151,-2.615088 c -0.86229,-1.39522 -3.37396,0.122356 -2.77703,1.677915 0.42289,1.102048 0.87769,1.173824 1.92584,0.303935 0.75472,-0.626357 1.13775,-1.518189 0.85119,-1.98185 z m 5.00033,-2.861269 c 0.31644,-0.511996 0.11799,-1.213553 -0.44098,-1.559017 -0.55897,-0.345463 -1.01631,0.07344 -1.01631,0.930902 0,1.756526 0.60006,2.015159 1.45729,0.628115 z m -75.45729,-3.069098 c 0,-0.55 -0.45,-1 -1,-1 -0.55,0 -1,0.45 -1,1 0,0.55 0.45,1 1,1 0.55,0 1,-0.45 1,-1 z m 81,0.559017 c 0,-0.242541 -0.45,-0.719098 -1,-1.059017 -0.55,-0.339919 -1,-0.141476 -1,0.440983 0,0.582459 0.45,1.059017 1,1.059017 0.55,0 1,-0.198442 1,-0.440983 z m -44.1889,-3.838056 c 1.14894,-2.408204 1.08321,-3.275566 -0.49262,-6.5 -1.01019,-2.067057 -2.70745,-3.883741 -3.81848,-4.087184 -1.86088,-0.340748 -1.88884,-0.236406 -0.402,1.5 2.66206,3.108881 3.05484,5.484018 1.33976,8.101552 -1.10018,1.679087 -2.23012,2.290727 -3.57983,1.937769 -1.64228,-0.429466 -1.76787,-0.269506 -0.75068,0.956134 1.93184,2.327719 6.18557,1.274054 7.70385,-1.908271 z m -7.8111,-3.720961 c 0,-0.55 -0.45,-1 -1,-1 -0.55,0 -1,0.45 -1,1 0,0.55 0.45,1 1,1 0.55,0 1,-0.45 1,-1 z"
       id="path1-2"
       transform="translate(-38.932851,147.99265)" />
    <path
       style="fill:#000000;fill-opacity:1;stroke:#e6e6e6"
       d="m 341.35742,160.67129 c -7.056,-8.97024 -1.44004,-26.93406 11.25016,-35.98603 l 2.84902,-2.03221 -10.85466,-3.19016 c -5.97006,-1.75458 -12.10407,-3.19015 -13.63114,-3.19015 -6.57864,0 -14.2415,5.28392 -17.85613,12.3127 -1.50104,2.91882 -2.47597,3.73938 -4.15842,3.5 -1.93425,-0.27522 -2.2339,-1.01073 -2.49978,-6.13596 -0.36709,-7.07633 2.53324,-12.83243 8.5759,-17.01999 8.04887,-5.57788 13.82256,-5.89471 28.34614,-1.55552 5.70903,1.70568 12.87912,3.33516 15.93353,3.62107 4.88876,0.45762 5.89992,0.22186 8.44771,-1.96967 2.80573,-2.41338 2.85589,-2.61745 1.64053,-6.67393 -0.68952,-2.30144 -1.79099,-4.351362 -2.4477,-4.555382 -0.65671,-0.20402 -4.65017,-1.10395 -8.87436,-1.99985 -9.56811,-2.02927 -14.0118,-4.85655 -15.21511,-9.68052 -0.83806,-3.35975 -1.25459,-3.66933 -6.5,-4.83098 -7.23012,-1.601187 -8.98931,-2.578653 -10.15395,-5.641899 -2.44057,-6.41918 14.78479,-42.297181 23.65844,-49.277181 3.44527,-2.71005 9.05318,-2.71743 22.97798,-0.0302 20.3552,3.92814 39.61494,10.27094 44.66298,14.708819 2.31651,2.036508 2.22146,7.593104 -0.22197,12.976035 -1.78356,3.929243 -1.81331,4.522106 -0.39707,7.911655 1.06716,2.554071 1.29248,4.751217 0.74377,7.252467 -0.89765,4.091812 -0.94768,3.359722 0.86021,12.588344 1.30529,6.66301 1.51317,7.0131 4.31818,7.27204 4.6863,0.4326 8.88743,-2.96722 13.53889,-10.956508 2.34255,-4.023542 5.41767,-8.609776 6.83359,-10.191631 5.67317,-6.33802 16.54174,-8.411275 24.6919,-4.710153 4.99658,2.269028 7.3825,5.439082 7.3825,9.808758 0,4.059711 -1.985,4.309345 -6.18237,0.777494 -3.70036,-3.113648 -10.89003,-3.428168 -15.08803,-0.660041 -2.7265,1.797838 -7.7296,7.822781 -7.7296,9.308321 0,0.41784 2.3625,-0.34019 5.25,-1.684516 9.89421,-4.606415 21.2501,-2.245845 26.5,5.508606 4.56976,6.74984 1.60577,10.30321 -4.2821,5.13359 -6.33181,-5.5594 -13.5802,-4.35636 -23.52721,3.90488 -2.50762,2.08265 -5.96063,4.63882 -7.67336,5.680392 l -3.11405,1.89377 4.98713,1.77127 c 9.05452,3.21588 14.85959,11.39816 14.85959,20.94465 0,4.58296 -1.53021,8.58157 -3.58592,9.37042 -2.12507,0.81547 -3.37982,-1.31595 -3.39877,-5.77346 -0.0194,-4.56111 -3.43543,-9.66686 -8.06575,-12.05537 -1.95274,-1.0073 -6.45274,-2.09027 -10,-2.40661 -6.00149,-0.53519 -6.31061,-0.46556 -4.44956,1.00221 8.73604,6.88993 12.07054,13.27237 11.27262,21.57647 -0.50228,5.22736 -3.63902,9.98542 -6.58286,9.98542 -1.16361,0 -1.33189,-0.94642 -0.82536,-4.64194 1.40699,-10.26512 -2.88386,-16.44904 -15.69092,-22.61354 -4.62423,-2.22581 -9.46574,-5.51186 -12.07213,-8.19363 l -4.35158,-4.47745 -0.61388,3.71328 c -1.05378,6.37422 -0.69687,13.19468 0.84668,16.17958 0.81542,1.57684 3.8629,4.22886 6.77218,5.89338 6.37964,3.65006 9.14427,6.45774 11.19752,11.37185 1.57377,3.76655 2.04121,10.3189 0.94074,13.18668 -1.17073,3.05089 -4.02153,1.76503 -5.26136,-2.37314 -1.68018,-5.60794 -5.49671,-9.69577 -12.22184,-13.0906 -7.71212,-3.89306 -12.35069,-8.09983 -14.29823,-12.9672 -0.87746,-2.193 -1.80506,-3.98727 -2.06133,-3.98727 -0.25627,0 -1.60991,1.95204 -3.0081,4.33786 -5.41943,9.24757 -2.42111,19.09067 8.36696,27.46757 5.1759,4.01907 -2.70132,5.88048 -9.69895,2.29189 -7.6184,-3.90695 -12.53205,-12.61669 -12.53926,-22.22666 l -0.004,-5.62933 -3.58334,1.49207 c -7.49013,3.11883 -10.83439,5.24866 -14.34774,9.13751 -3.9565,4.37937 -6.23331,10.89051 -5.35093,15.30239 1.17765,5.88828 -1.77426,7.68946 -5.2858,3.22525 z m 1.80305,-3.14855 c -1.19322,-3.12931 -0.36034,-10.48303 1.61245,-14.23683 2.90505,-5.52766 9.05743,-10.09799 18.10159,-13.44687 4.88623,-1.80928 9.66816,-3.6237 10.62652,-4.03205 1.62405,-0.69199 1.64104,-0.49969 0.25,2.82953 -3.96497,9.4895 -0.17041,22.34779 8.15261,27.62609 2.61057,1.65557 5.89588,3.00845 7.3007,3.00639 2.51749,-0.004 2.50812,-0.0318 -0.65193,-1.95863 -3.754,-2.28894 -8.90775,-10.79282 -9.82257,-16.20764 -0.80248,-4.74984 0.89212,-10.23842 4.63785,-15.02135 2.55887,-3.26743 2.89087,-4.49262 2.89087,-10.66821 0,-3.83727 0.27314,-7.68866 0.60699,-8.55864 1.25572,-3.27237 1.8813,-1.37768 1.54073,4.66639 -0.76151,13.51423 3.60836,22.50828 13.12523,27.01431 7.33936,3.47502 12.60609,8.25384 15.14008,13.73751 l 2.07944,4.5 0.32897,-3.40882 c 0.40904,-4.23851 -2.14522,-11.14176 -5.09661,-13.77434 -1.22365,-1.09148 -4.39053,-3.21978 -7.0375,-4.72956 -5.20208,-2.96715 -8.14573,-6.88677 -9.13592,-12.16494 -0.53341,-2.84333 1.89822,-21.2053 2.94706,-22.25415 0.19473,-0.19473 1.11182,1.15027 2.03798,2.98888 2.70589,5.37176 8.50346,10.71549 14.95915,13.78813 13.53425,6.44176 19.08408,13.29839 18.33967,22.65808 -0.19232,2.4182 -0.2455,4.39672 -0.11816,4.39672 0.96047,0 3.27863,-6.54044 3.26093,-9.20034 -0.0508,-7.63686 -3.58915,-12.08868 -17.6938,-22.2619 -3.94362,-2.8444 -6.98073,-5.98267 -8.30844,-8.58519 -3.00604,-5.892332 -1.84455,-7.291122 1.4236,-1.71444 4.10106,6.99793 7.55065,8.68609 19.25144,9.42126 5.41704,0.34035 11.0634,1.23075 12.54747,1.97867 4.39203,2.21341 7.93884,7.74697 8.71531,13.59718 0.68567,5.16615 0.71356,5.20242 1.48919,1.93659 0.43474,-1.8305 0.48439,-4.95957 0.11033,-6.95349 -1.98447,-10.57812 -9.31844,-16.51575 -21.89724,-17.72815 -7.89469,-0.76093 -14.12617,-3.08537 -17.02644,-6.351142 -2.1434,-2.41353 -1.61928,-4.02602 0.59039,-1.81635 2.14392,2.14393 7.45751,4.677302 9.81033,4.677302 3.22883,0 9.03742,-3.338452 16.60633,-9.544372 3.79692,-3.11318 8.09375,-6.2764 9.54852,-7.02938 4.04346,-2.09287 10.37008,-2.79094 13.95816,-1.54012 4.50926,1.57193 4.97924,0.46408 0.58247,-1.37301 -7.63749,-3.191144 -15.01947,-1.521415 -24.32074,5.50111 -11.41204,8.61618 -19.62594,10.92809 -24.68567,6.9481 -3.40559,-2.67884 -2.8451,-3.77233 0.73217,-1.42842 3.47938,2.27978 9.6604,1.29294 15.75229,-2.51498 3.47963,-2.17504 5.51078,-4.50671 8,-9.18361 7.05699,-13.259101 14.73998,-17.475914 23.60283,-12.954426 2.22693,1.136097 4.27995,2.640162 4.56227,3.342367 0.41137,1.023207 0.52897,1.01949 0.59224,-0.01872 0.1322,-2.169296 -4.43886,-5.977046 -8.54332,-7.116698 -11.46866,-3.184398 -19.28319,1.006747 -25.93967,13.912154 -3.38314,6.559123 -5.99229,9.697943 -9.6384,11.595013 -5.21783,2.71483 -11.79966,1.16126 -11.79966,-2.78518 0,-1.99029 -0.11173,-2.01869 -1.82874,-0.46482 -2.57644,2.33165 -6.23827,2.05666 -10.04875,-0.75463 -2.66988,-1.96978 -3.81823,-2.25124 -6.29119,-1.542 -4.20577,1.20619 -5.82323,2.76694 -7.90815,7.63085 -4.25802,9.933562 -18.62912,9.735582 -20.50853,-0.28253 -0.454,-2.42005 -1.08925,-3.35181 -2.03718,-2.98805 -1.80174,0.69139 -1.73749,0.009 0.3286,-3.4882 3.23125,-5.470068 11.38411,-7.476544 17.5092,-4.30914 2.14912,1.11135 4.67513,1.4615 8.14095,1.12848 5.16847,-0.49662 6.80888,-1.758843 12.01254,-9.243109 1.52547,-2.194034 2.47953,-2.616465 5.19364,-2.299607 2.79023,0.325743 3.41708,0.02085 3.89819,-1.896036 1.45763,-5.807659 -7.03964,-16.835086 -19.23374,-24.960799 -4.79976,-3.198388 -8.91434,-5.933379 -9.14351,-6.077749 -0.22916,-0.14437 -0.13993,-0.53923 0.19831,-0.87747 1.17975,-1.17974 13.84477,6.801674 20.14509,12.695315 l 6.34849,5.938704 1.61239,-4.029757 c 2.35546,-5.886862 2.05007,-7.751795 -1.63761,-10.000471 -9.68547,-5.906021 -52.98699,-16.401071 -60.19991,-14.590741 -4.92943,1.23721 -15.29162,17.829782 -22.55735,36.12019 -3.899,9.815167 -3.91534,12.856945 -0.0776,14.446591 1.60333,0.664121 4.49064,1.562824 6.41623,1.997115 l 3.50108,0.789622 0.66944,-6.125795 c 0.95262,-8.717099 3.48968,-20.957108 4.57578,-22.075796 1.19213,-1.2279 1.18448,0.794695 -0.0272,7.183761 -1.80045,9.493756 -2.31035,21.599347 -1.09901,26.091882 0.94547,3.50647 1.81978,4.59866 4.61683,5.76735 4.84627,2.0249 16.43169,4.34097 16.43169,3.2849 0,-2.46692 1.97736,-0.29075 3.86667,4.25546 2.65201,6.381442 2.69126,9.308722 0.15877,11.841212 -4.13654,4.13654 -13.19063,3.94765 -27.02544,-0.56383 -15.51223,-5.05847 -25.75085,-3.03151 -31.94826,6.32487 -2.4521,3.702 -3.03402,5.60518 -2.96155,9.68584 l 0.0902,5.07856 0.99457,-3.5 c 2.24243,-7.89135 10.30543,-14 18.47904,-14 2.2124,0 9.37503,1.575 15.91695,3.5 6.54192,1.925 13.2522,3.49463 14.91173,3.48808 4.55914,-0.018 14.6018,-6.0073 17.51733,-10.44705 1.88103,-2.86443 2.58488,-3.3776 2.84284,-2.07266 0.72711,3.67821 -5.15549,8.87974 -16.17282,14.30037 -13.38174,6.58394 -17.87708,10.92419 -20.66571,19.95274 -2.38602,7.72502 -2.47907,10.20651 -0.55534,14.81064 1.71012,4.09288 2.97887,4.71976 1.45294,0.71788 z m 49.17704,-60.833342 c 0.048,-1.16494 0.28494,-1.4019 0.60416,-0.60416 0.28887,0.72187 0.25335,1.58437 -0.0789,1.91666 -0.3323,0.3323 -0.56864,-0.25833 -0.52522,-1.3125 z m -69.55249,18.776472 c -0.30789,-0.30789 -1.1148,-6.4e-4 -1.79313,0.68278 -0.98027,0.98762 -0.8654,1.10248 0.5598,0.5598 0.98622,-0.37553 1.54122,-0.93469 1.23333,-1.24258 z M 442.25856,98.831758 c 0,-1.05548 -1.91911,-1.49892 -2.48992,-0.57533 -0.34546,0.55897 0.0734,1.01631 0.9309,1.01631 0.85746,0 1.55902,-0.19844 1.55902,-0.44098 z m -55.45455,-4.01357 c 2.67937,-2.67936 3.35437,-8.24564 1.25455,-10.34545 -1.84832,-1.84832 -2.56754,-1.43481 -2.06617,1.18794 0.70454,3.68558 -1.35201,6.61206 -4.64657,6.61206 -3.59121,0 -5.48726,-2.25345 -5.48726,-6.5216 0,-2.90131 -0.23393,-3.2095 -1.8,-2.37137 -1.27396,0.68181 -1.8,2.13532 -1.8,4.97361 0,5.31595 3.43399,8.91936 8.5,8.91936 2.47924,0 4.35079,-0.75988 6.04545,-2.45455 z m 61.91151,-2.61509 c -0.86229,-1.39522 -3.37396,0.12236 -2.77703,1.67792 0.42289,1.10205 0.87769,1.17382 1.92584,0.30393 0.75472,-0.62635 1.13775,-1.51818 0.85119,-1.98185 z m 5.00033,-2.86126 c 0.31644,-0.512 0.11799,-1.21356 -0.44098,-1.55902 -0.55897,-0.34546 -1.01631,0.0734 -1.01631,0.9309 0,1.75653 0.60006,2.01516 1.45729,0.62812 z m -75.45729,-3.0691 c 0,-0.55 -0.45,-1 -1,-1 -0.55,0 -1,0.45 -1,1 0,0.55 0.45,1 1,1 0.55,0 1,-0.45 1,-1 z m 81,0.55901 c 0,-0.24254 -0.45,-0.71909 -1,-1.05901 -0.55,-0.33992 -1,-0.14148 -1,0.44098 0,0.58246 0.45,1.05902 1,1.05902 0.55,0 1,-0.19844 1,-0.44099 z m -44.1889,-3.83805 c 1.14894,-2.408206 1.08321,-3.275568 -0.49262,-6.500002 -1.01019,-2.067057 -2.70745,-3.883741 -3.81848,-4.087184 -1.86088,-0.340748 -1.88884,-0.236406 -0.402,1.5 2.66206,3.108881 3.05484,5.484018 1.33976,8.101556 -1.10018,1.67908 -2.23012,2.29072 -3.57983,1.93777 -1.64228,-0.42947 -1.76787,-0.26951 -0.75068,0.95613 1.93184,2.32772 6.18557,1.27405 7.70385,-1.90827 z m -7.8111,-3.720963 c 0,-0.55 -0.45,-1 -1,-1 -0.55,0 -1,0.45 -1,1 0,0.55 0.45,1 1,1 0.55,0 1,-0.45 1,-1 z"
       id="path1-2-3" />
  </g>
</svg>
